<mxfile host="app.diagrams.net" modified="2024-01-03T00:23:14.747Z" agent="Mozilla/5.0 (X11; Linux x86_64) AppleWebKit/537.36 (KHTML, like Gecko) Chrome/119.0.0.0 Safari/537.36" etag="qeHWJjzN-xbaDLdaoHoV" version="22.1.16" type="github">
  <diagram name="Page-1" id="erUGXUhxaApaamkQ9ES2">
    <mxGraphModel dx="1389" dy="1906" grid="1" gridSize="10" guides="1" tooltips="1" connect="1" arrows="1" fold="1" page="1" pageScale="1" pageWidth="850" pageHeight="1100" math="0" shadow="0">
      <root>
        <mxCell id="0" />
        <mxCell id="1" parent="0" />
        <mxCell id="jnIj-qHpWdanFoDuEm29-1" value="" style="rounded=0;whiteSpace=wrap;html=1;" vertex="1" parent="1">
          <mxGeometry y="-1100" width="850" height="220" as="geometry" />
        </mxCell>
        <mxCell id="jnIj-qHpWdanFoDuEm29-2" value="&lt;font style=&quot;font-size: 15px;&quot;&gt;CIF TITLE&lt;/font&gt;" style="rounded=0;whiteSpace=wrap;html=1;" vertex="1" parent="1">
          <mxGeometry x="365" y="-1040" width="120" height="60" as="geometry" />
        </mxCell>
        <mxCell id="jnIj-qHpWdanFoDuEm29-3" value="Navigation menu" style="rounded=1;whiteSpace=wrap;html=1;" vertex="1" parent="1">
          <mxGeometry x="190" y="-960" width="470" height="60" as="geometry" />
        </mxCell>
        <mxCell id="jnIj-qHpWdanFoDuEm29-4" value="" style="rounded=1;whiteSpace=wrap;html=1;" vertex="1" parent="1">
          <mxGeometry x="10" y="-840" width="100" height="440" as="geometry" />
        </mxCell>
        <mxCell id="jnIj-qHpWdanFoDuEm29-5" value="&lt;h1&gt;Players online&lt;/h1&gt;&lt;p&gt;- Pepito123&lt;/p&gt;&lt;p&gt;- [CIF]Admin&lt;/p&gt;" style="text;html=1;strokeColor=none;fillColor=none;spacing=5;spacingTop=-20;whiteSpace=wrap;overflow=hidden;rounded=0;" vertex="1" parent="1">
          <mxGeometry x="10" y="-800" width="150" height="270" as="geometry" />
        </mxCell>
        <mxCell id="jnIj-qHpWdanFoDuEm29-7" value="" style="rounded=1;whiteSpace=wrap;html=1;arcSize=4;" vertex="1" parent="1">
          <mxGeometry x="120" y="-840" width="580" height="440" as="geometry" />
        </mxCell>
        <mxCell id="jnIj-qHpWdanFoDuEm29-8" value="Ads" style="rounded=1;whiteSpace=wrap;html=1;" vertex="1" parent="1">
          <mxGeometry x="720" y="-840" width="120" height="440" as="geometry" />
        </mxCell>
        <mxCell id="jnIj-qHpWdanFoDuEm29-10" value="Footer" style="rounded=0;whiteSpace=wrap;html=1;" vertex="1" parent="1">
          <mxGeometry y="-360" width="850" height="210" as="geometry" />
        </mxCell>
        <mxCell id="jnIj-qHpWdanFoDuEm29-11" value="&lt;h1&gt;Inicio&lt;/h1&gt;&lt;div&gt;&lt;br&gt;&lt;/div&gt;&lt;div&gt;informacion relevante de un inicio&lt;/div&gt;" style="text;html=1;strokeColor=none;fillColor=none;spacing=5;spacingTop=-20;whiteSpace=wrap;overflow=hidden;rounded=0;" vertex="1" parent="1">
          <mxGeometry x="140" y="-820" width="550" height="380" as="geometry" />
        </mxCell>
      </root>
    </mxGraphModel>
  </diagram>
</mxfile>
